{
  "accessors": [
    {
      "bufferView": 2,
      "componentType": 5126,
      "count": 17238,
      "max": [
        0.9791210293769836,
        0.9899449944496155,
        0.6490809917449951
      ],
      "min": [
        -1.0063730478286743,
        -0.9888929724693298,
        -0.6395540237426758
      ],
      "type": "VEC3"
    },
    {
      "bufferView": 2,
      "byteOffset": 206856,
      "componentType": 5126,
      "count": 17238,
      "max": [
        0.999359130859375,
        0.9976088404655457,
        0.999969482421875
      ],
      "min": [
        -0.9977383017539978,
        -0.9981098771095276,
        -0.999970555305481
      ],
      "type": "VEC3"
    },
    {
      "bufferView": 1,
      "componentType": 5126,
      "count": 17238,
      "max": [
        0.998865008354187,
        0.9933279752731323
      ],
      "min": [
        0.0011350000277161598,
        0.0011350000277161598
      ],
      "type": "VEC2"
    },
    {
      "bufferView": 0,
      "componentType": 5125,
      "count": 65325,
      "type": "SCALAR"
    }
  ],
  "asset": {
    "extras": {
      "author": "wasis007 (https://sketchfab.com/wasis007)",
      "license": "CC-BY-4.0 (http://creativecommons.org/licenses/by/4.0/)",
      "source": "https://sketchfab.com/3d-models/floating-island-19cb15f12d7b4ddcbf1ef5034f81dc7e",
      "title": "Floating_Island_"
    },
    "generator": "Sketchfab-16.59.0",
    "version": "2.0"
  },
  "bufferViews": [
    {
      "buffer": 0,
      "byteLength": 261300,
      "name": "floatBufferViews",
      "target": 34963
    },
    {
      "buffer": 0,
      "byteLength": 137904,
      "byteOffset": 261300,
      "byteStride": 8,
      "name": "floatBufferViews",
      "target": 34962
    },
    {
      "buffer": 0,
      "byteLength": 413712,
      "byteOffset": 399204,
      "byteStride": 12,
      "name": "floatBufferViews",
      "target": 34962
    }
  ],
  "buffers": [
    {
      "byteLength": 812916,
      "uri": "scene.bin"
    }
  ],
  "images": [
    {
      "uri": "textures/Material.001_baseColor.png"
    }
  ],
  "materials": [
    {
      "doubleSided": true,
      "name": "Material.001",
      "pbrMetallicRoughness": {
        "baseColorTexture": {
          "index": 0
        },
        "metallicFactor": 0.0,
        "roughnessFactor": 0.8011823178082373
      }
    }
  ],
  "meshes": [
    {
      "name": "Object_0",
      "primitives": [
        {
          "attributes": {
            "NORMAL": 1,
            "POSITION": 0,
            "TEXCOORD_0": 2
          },
          "indices": 3,
          "material": 0,
          "mode": 4
        }
      ]
    }
  ],
  "nodes": [
    {
      "children": [
        1
      ],
      "matrix": [
        1.0,
        0.0,
        0.0,
        0.0,
        0.0,
        2.220446049250313e-16,
        -1.0,
        0.0,
        0.0,
        1.0,
        2.220446049250313e-16,
        0.0,
        0.0,
        0.0,
        0.0,
        1.0
      ],
      "name": "Sketchfab_model"
    },
    {
      "children": [
        2
      ],
      "name": "Floating_Island_0202060342_texture.obj.cleaner.materialmerger.gles"
    },
    {
      "mesh": 0,
      "name": "Object_2"
    }
  ],
  "samplers": [
    {
      "magFilter": 9729,
      "minFilter": 9987,
      "wrapS": 10497,
      "wrapT": 10497
    }
  ],
  "scene": 0,
  "scenes": [
    {
      "name": "Sketchfab_Scene",
      "nodes": [
        0
      ]
    }
  ],
  "textures": [
    {
      "sampler": 0,
      "source": 0
    }
  ]
}
