{
	"asset":{
		"generator":"Khronos glTF Blender I/O v4.5.47",
		"version":"2.0"
	},
	"extensionsUsed":[
		"KHR_materials_unlit"
	],
	"scene":0,
	"scenes":[
		{
			"name":"Scene",
			"nodes":[
				2,
				8,
				9,
				10
			]
		}
	],
	"nodes":[
		{
			"name":"Plane",
			"rotation":[
				-0.70710688829422,
				0,
				0,
				0.7071066498756409
			],
			"scale":[
				100,
				99.99999237060547,
				99.99999237060547
			]
		},
		{
			"children":[
				0
			],
			"name":"RootNode"
		},
		{
			"children":[
				1
			],
			"name":"aadd6e8d8d404967a2721191aa7641c4.fbx",
			"rotation":[
				0.70710688829422,
				0,
				0,
				0.7071066498756409
			],
			"scale":[
				0.009999999776482582,
				0.010000000707805157,
				0.010000000707805157
			]
		},
		{
			"name":"Treasure Chest",
			"rotation":[
				-0.70710688829422,
				0,
				0,
				0.7071066498756409
			],
			"scale":[
				100,
				99.99999237060547,
				99.99999237060547
			]
		},
		{
			"name":"Treasure Chest Armature",
			"rotation":[
				-0.70710688829422,
				0,
				0,
				0.7071066498756409
			],
			"scale":[
				100,
				99.99999237060547,
				99.99999237060547
			]
		},
		{
			"children":[
				3,
				4
			],
			"name":"RootNode.001"
		},
		{
			"children":[
				5
			],
			"name":"Object_2"
		},
		{
			"children":[
				6
			],
			"name":"6acb22bd3c74429aaf003a3a07c78be3.fbx",
			"rotation":[
				0.70710688829422,
				0,
				0,
				0.7071066498756409
			],
			"scale":[
				0.009999999776482582,
				0.010000000707805157,
				0.010000000707805157
			]
		},
		{
			"children":[
				7
			],
			"name":"Sketchfab_model",
			"rotation":[
				-0.70710688829422,
				0,
				0,
				0.7071066498756409
			]
		},
		{
			"mesh":0,
			"name":"Object_9"
		},
		{
			"name":"Object_8",
			"rotation":[
				-0.70710688829422,
				0,
				0,
				0.7071066498756409
			],
			"scale":[
				100,
				100.00001525878906,
				100.00001525878906
			]
		}
	],
	"materials":[
		{
			"doubleSided":true,
			"extensions":{
				"KHR_materials_unlit":{}
			},
			"name":"Treasure_Chest",
			"pbrMetallicRoughness":{
				"baseColorTexture":{
					"index":0
				},
				"metallicFactor":0,
				"roughnessFactor":0.9
			}
		}
	],
	"meshes":[
		{
			"name":"Treasure Chest_Treasure Chest_0",
			"primitives":[
				{
					"attributes":{
						"POSITION":0,
						"NORMAL":1,
						"TEXCOORD_0":2
					},
					"indices":3,
					"material":0
				}
			]
		}
	],
	"textures":[
		{
			"sampler":0,
			"source":0
		}
	],
	"images":[
		{
			"mimeType":"image/png",
			"name":"Treasure_Chest_baseColor",
			"uri":"textures/Treasure_Chest_baseColor.png"
		}
	],
	"accessors":[
		{
			"bufferView":0,
			"componentType":5126,
			"count":1346,
			"max":[
				1.0166774988174438,
				1.517594337463379,
				0.508029580116272
			],
			"min":[
				-1.0166758298873901,
				-0.122947096824646,
				-0.5677390098571777
			],
			"type":"VEC3"
		},
		{
			"bufferView":1,
			"componentType":5126,
			"count":1346,
			"type":"VEC3"
		},
		{
			"bufferView":2,
			"componentType":5126,
			"count":1346,
			"type":"VEC2"
		},
		{
			"bufferView":3,
			"componentType":5123,
			"count":3222,
			"type":"SCALAR"
		}
	],
	"bufferViews":[
		{
			"buffer":0,
			"byteLength":16152,
			"byteOffset":0,
			"target":34962
		},
		{
			"buffer":0,
			"byteLength":16152,
			"byteOffset":16152,
			"target":34962
		},
		{
			"buffer":0,
			"byteLength":10768,
			"byteOffset":32304,
			"target":34962
		},
		{
			"buffer":0,
			"byteLength":6444,
			"byteOffset":43072,
			"target":34963
		}
	],
	"samplers":[
		{
			"magFilter":9729,
			"minFilter":9987
		}
	],
	"buffers":[
		{
			"byteLength":49516,
			"uri":"scene-scaled.bin"
		}
	]
}
